<?xml version="1.0" encoding="utf-8"?>
<!-- Generator: Adobe Illustrator 19.0.0, SVG Export Plug-In . SVG Version: 6.00 Build 0)  -->
<svg version="1.1" xmlns="http://www.w3.org/2000/svg" xmlns:xlink="http://www.w3.org/1999/xlink" x="0px" y="0px"
	 viewBox="0 0 500 500" style="enable-background:new 0 0 500 500;" xml:space="preserve">
<style type="text/css">
	.st0{fill:#1976D2;}
	.st1{fill:none;}
	.st2{fill:#FFFFFF;}
</style>
<g id="Layer_2">
	<circle id="XMLID_1_" class="st0" cx="250" cy="250" r="238.6"/>
</g>
<g id="Layer_3">
	<path id="XMLID_5_" class="st1" d="M57.2,57.2h385.6v385.6H57.2V57.2z"/>
	<path class="st2" d="M362.5,73.3l-80.3,80.3v176.8l80.3-72.3V73.3z M73.3,153.6V389c0,4,4,8,8,8c1.6,0,2.4-0.8,4-0.8
		c21.7-10.4,53-17.7,76.3-17.7c31.3,0,65.1,6.4,88.4,24.1V153.6c-23.3-17.7-57-24.1-88.4-24.1S96.5,135.9,73.3,153.6z M426.8,370.5
		V153.6c-9.6-7.2-20.1-12.1-32.1-16.1v216.9c-17.7-5.6-37-8-56.2-8c-27.3,0-66.7,10.4-88.4,24.1v32.1c21.7-13.7,61.1-24.1,88.4-24.1
		c26.5,0,53.8,4.8,76.3,16.9c1.6,0.8,2.4,0.8,4,0.8c4,0,8-4,8-8C426.8,388.2,426.8,370.5,426.8,370.5z"/>
</g>
</svg>
